<svg xmlns="http://www.w3.org/2000/svg" width="697" height="160" viewBox="0 0 697 160">
<defs>
  <linearGradient id="tile" x1="0" y1="0" x2="0" y2="160" gradientUnits="userSpaceOnUse">
    <stop offset="0" stop-color="#36322C"/><stop offset="0.55" stop-color="#1E1C19"/><stop offset="1" stop-color="#121110"/>
  </linearGradient>
  <linearGradient id="glass" x1="0" y1="0" x2="0" y2="1">
    <stop offset="0" stop-color="#0B0A09"/><stop offset="1" stop-color="#191714"/>
  </linearGradient>
  <linearGradient id="capsule" x1="0" y1="0" x2="1" y2="0">
    <stop offset="0" stop-color="#D9D2C5"/><stop offset="0.45" stop-color="#F7F3EA"/><stop offset="1" stop-color="#C9C1B3"/>
  </linearGradient>
  <radialGradient id="ledglow">
    <stop offset="0" stop-color="#C6EE6A" stop-opacity="0.55"/><stop offset="1" stop-color="#C6EE6A" stop-opacity="0"/>
  </radialGradient>
  <filter id="grain" x="0" y="0" width="100%" height="100%">
    <feTurbulence type="fractalNoise" baseFrequency="0.9" numOctaves="2" seed="7"/>
    <feColorMatrix values="0 0 0 0 1  0 0 0 0 1  0 0 0 0 1  0 0 0 0.06 0"/>
    <feComposite in2="SourceGraphic" operator="in"/>
  </filter>
  <filter id="shadow" x="-20%" y="-20%" width="140%" height="150%">
    <feDropShadow dx="0" dy="12" stdDeviation="14" flood-color="#000" flood-opacity="0.45"/>
  </filter>
</defs>
<mask id="cut11" maskUnits="userSpaceOnUse" x="-92" y="-100.0" width="360" height="360"><rect x="-92" y="-100.0" width="360" height="360" fill="#fff"/><circle cx="140.50" cy="27.50" r="22.80" fill="#000"/></mask>
<g mask="url(#cut11)"><rect x="35.50" y="27.50" width="105.00" height="105.00" rx="26.40" fill="none" stroke="#000000" stroke-width="10.20"/>
  <rect x="70.00" y="50.00" width="36.00" height="52.80" rx="18.00" fill="#000000"/>
  <rect x="83.80" y="101.60" width="8.40" height="18.00" fill="#000000"/></g>
<circle cx="140.50" cy="27.50" r="13.80" fill="#000000"/>
<path d="M227.002 110.0H214.102L193.548 46.962H205.244L215.048 78.266L220.638 99.078H220.982L226.486 78.266L236.462 46.962H247.728ZM249.19 86.436Q249.19 78.95400000000001 251.856 73.40700000000001Q254.522 67.86000000000001 259.424 64.85000000000001Q264.326 61.84 270.948 61.84Q277.57 61.84 282.515 64.85000000000001Q287.46 67.86000000000001 290.08299999999997 73.40700000000001Q292.706 78.95400000000001 292.706 86.436Q292.706 93.918 290.08299999999997 99.50800000000001Q287.46 105.098 282.515 108.108Q277.57 111.118 270.948 111.118Q264.326 111.118 259.424 108.108Q254.522 105.098 251.856 99.50800000000001Q249.19 93.918 249.19 86.436ZM281.182 90.736V82.22200000000001Q281.182 76.718 278.473 73.708Q275.764 70.69800000000001 270.948 70.69800000000001Q266.218 70.69800000000001 263.509 73.665Q260.8 76.632 260.8 82.22200000000001V90.736Q260.8 96.24000000000001 263.466 99.20700000000001Q266.132 102.174 270.948 102.174Q275.764 102.174 278.473 99.20700000000001Q281.182 96.24000000000001 281.182 90.736ZM301.392 49.972V48.33800000000001Q301.392 45.75800000000001 302.98299999999995 44.25300000000001Q304.57399999999996 42.748000000000005 307.842 42.748000000000005Q311.10999999999996 42.748000000000005 312.70099999999996 44.25300000000001Q314.292 45.75800000000001 314.292 48.33800000000001V49.972Q314.292 52.55200000000001 312.70099999999996 54.057Q311.10999999999996 55.562000000000005 307.842 55.562000000000005Q304.57399999999996 55.562000000000005 302.98299999999995 54.057Q301.392 52.55200000000001 301.392 49.972ZM313.346 110.0H302.33799999999997V62.958000000000006H313.346ZM322.892 86.436Q322.892 74.998 328.568 68.41900000000001Q334.24399999999997 61.84 344.56399999999996 61.84Q351.35799999999995 61.84 356.04499999999996 64.936Q360.73199999999997 68.03200000000001 362.88199999999995 73.622L353.938 77.75Q352.99199999999996 74.482 350.62699999999995 72.63300000000001Q348.26199999999994 70.784 344.56399999999996 70.784Q339.662 70.784 337.082 73.88Q334.50199999999995 76.976 334.50199999999995 82.22200000000001V90.65Q334.50199999999995 95.982 337.082 99.078Q339.662 102.174 344.56399999999996 102.174Q348.43399999999997 102.174 350.885 100.196Q353.33599999999996 98.218 354.798 94.69200000000001L363.226 98.73400000000001Q360.904 104.84 356.131 107.979Q351.35799999999995 111.118 344.56399999999996 111.118Q334.33 111.118 328.611 104.496Q322.892 97.874 322.892 86.436ZM367.784 86.436Q367.784 79.04 370.364 73.45000000000002Q372.94399999999996 67.86000000000001 377.88899999999995 64.85000000000001Q382.83399999999995 61.84 389.542 61.84Q396.508 61.84 401.28099999999995 64.979Q406.054 68.118 408.419 73.45Q410.784 78.78200000000001 410.784 85.49000000000001V89.188H379.308V90.47800000000001Q379.308 95.896 382.318 99.078Q385.328 102.26 390.91799999999995 102.26Q394.96 102.26 397.92699999999996 100.49700000000001Q400.89399999999995 98.73400000000001 403.13 95.638L409.15 102.174Q406.31199999999995 106.302 401.28099999999995 108.71000000000001Q396.24999999999994 111.118 389.88599999999997 111.118Q383.006 111.118 378.061 108.108Q373.116 105.098 370.45 99.50800000000001Q367.784 93.918 367.784 86.436ZM379.308 82.394H399.26V81.534Q399.26 76.28800000000001 396.72299999999996 73.23500000000001Q394.186 70.182 389.628 70.182Q384.984 70.182 382.14599999999996 73.364Q379.308 76.54599999999999 379.308 81.706ZM421.1039999999999 110.0V46.962H449.99999999999994Q457.65399999999994 46.962 462.126 51.391000000000005Q466.59799999999996 55.82000000000001 466.59799999999996 63.13Q466.59799999999996 69.75200000000001 463.41599999999994 73.02000000000001Q460.2339999999999 76.28800000000001 455.50399999999996 76.632V77.23400000000001Q458.51399999999995 77.32 461.60999999999996 78.868Q464.70599999999996 80.416 466.813 83.684Q468.91999999999996 86.952 468.91999999999996 91.94Q468.91999999999996 96.928 466.813 101.056Q464.70599999999996 105.184 461.0079999999999 107.592Q457.30999999999995 110.0 452.66599999999994 110.0ZM447.5919999999999 73.45Q451.0319999999999 73.45 452.9239999999999 71.601Q454.8159999999999 69.75200000000001 454.8159999999999 66.398V63.646Q454.8159999999999 60.37800000000001 452.9239999999999 58.486000000000004Q451.0319999999999 56.594 447.5919999999999 56.594H432.45599999999996V73.45ZM449.3979999999999 100.368Q452.9239999999999 100.368 454.98799999999994 98.39Q457.05199999999996 96.412 457.05199999999996 92.97200000000001V89.962Q457.05199999999996 86.608 455.03099999999995 84.71600000000001Q453.00999999999993 82.824 449.3979999999999 82.824H432.45599999999996V100.368ZM475.972 86.436Q475.972 78.95400000000001 478.638 73.40700000000001Q481.304 67.86000000000001 486.20599999999996 64.85000000000001Q491.10799999999995 61.84 497.72999999999996 61.84Q504.352 61.84 509.29699999999997 64.85000000000001Q514.242 67.86000000000001 516.865 73.40700000000001Q519.4879999999999 78.95400000000001 519.4879999999999 86.436Q519.4879999999999 93.918 516.865 99.50800000000001Q514.242 105.098 509.29699999999997 108.108Q504.352 111.118 497.72999999999996 111.118Q491.10799999999995 111.118 486.20599999999996 108.108Q481.304 105.098 478.638 99.50800000000001Q475.972 93.918 475.972 86.436ZM507.96399999999994 90.736V82.22200000000001Q507.96399999999994 76.718 505.25499999999994 73.708Q502.54599999999994 70.69800000000001 497.72999999999996 70.69800000000001Q492.99999999999994 70.69800000000001 490.29099999999994 73.665Q487.58199999999994 76.632 487.58199999999994 82.22200000000001V90.736Q487.58199999999994 96.24000000000001 490.24799999999993 99.20700000000001Q492.91399999999993 102.174 497.72999999999996 102.174Q502.54599999999994 102.174 505.25499999999994 99.20700000000001Q507.96399999999994 96.24000000000001 507.96399999999994 90.736ZM525.9379999999999 86.436Q525.9379999999999 78.95400000000001 528.6039999999998 73.40700000000001Q531.2699999999999 67.86000000000001 536.1719999999999 64.85000000000001Q541.074 61.84 547.6959999999999 61.84Q554.3179999999999 61.84 559.2629999999999 64.85000000000001Q564.2079999999999 67.86000000000001 566.8309999999999 73.40700000000001Q569.454 78.95400000000001 569.454 86.436Q569.454 93.918 566.8309999999999 99.50800000000001Q564.2079999999999 105.098 559.2629999999999 108.108Q554.3179999999999 111.118 547.6959999999999 111.118Q541.074 111.118 536.1719999999999 108.108Q531.2699999999999 105.098 528.6039999999998 99.50800000000001Q525.9379999999999 93.918 525.9379999999999 86.436ZM557.93 90.736V82.22200000000001Q557.93 76.718 555.221 73.708Q552.512 70.69800000000001 547.6959999999999 70.69800000000001Q542.9659999999999 70.69800000000001 540.2569999999998 73.665Q537.5479999999999 76.632 537.5479999999999 82.22200000000001V90.736Q537.5479999999999 96.24000000000001 540.2139999999999 99.20700000000001Q542.8799999999999 102.174 547.6959999999999 102.174Q552.512 102.174 555.221 99.20700000000001Q557.93 96.24000000000001 557.93 90.736ZM592.9319999999999 110.0Q587.2559999999999 110.0 584.2889999999999 106.99000000000001Q581.3219999999999 103.98 581.3219999999999 98.476V71.73H574.1839999999999V62.958000000000006H577.9679999999998Q580.4619999999999 62.958000000000006 581.4509999999998 61.797000000000004Q582.4399999999998 60.636 582.4399999999998 58.142V50.05800000000001H592.3299999999998V62.958000000000006H601.9619999999999V71.73H592.3299999999998V101.22800000000001H601.2739999999999V110.0ZM611.3359999999999 110.0V43.17800000000001H622.3439999999999V70.69800000000001H622.7739999999999Q624.3219999999999 66.656 627.5469999999999 64.248Q630.7719999999999 61.84 635.9319999999999 61.84Q643.242 61.84 647.155 66.656Q651.0679999999999 71.47200000000001 651.0679999999999 80.244V110.0H640.06V81.362Q640.06 76.116 638.0819999999999 73.536Q636.1039999999999 70.956 631.9759999999999 70.956Q627.934 70.956 625.1389999999999 72.977Q622.3439999999999 74.998 622.3439999999999 78.696V110.0Z" fill="#000000"/>
</svg>