<svg xmlns="http://www.w3.org/2000/svg" width="1280" height="320" viewBox="0 0 1280 320">
<defs>
  <linearGradient id="tile" x1="0" y1="0" x2="0" y2="320" gradientUnits="userSpaceOnUse">
    <stop offset="0" stop-color="#36322C"/><stop offset="0.55" stop-color="#1E1C19"/><stop offset="1" stop-color="#121110"/>
  </linearGradient>
  <linearGradient id="glass" x1="0" y1="0" x2="0" y2="1">
    <stop offset="0" stop-color="#0B0A09"/><stop offset="1" stop-color="#191714"/>
  </linearGradient>
  <linearGradient id="capsule" x1="0" y1="0" x2="1" y2="0">
    <stop offset="0" stop-color="#D9D2C5"/><stop offset="0.45" stop-color="#F7F3EA"/><stop offset="1" stop-color="#C9C1B3"/>
  </linearGradient>
  <radialGradient id="ledglow">
    <stop offset="0" stop-color="#C6EE6A" stop-opacity="0.55"/><stop offset="1" stop-color="#C6EE6A" stop-opacity="0"/>
  </radialGradient>
  <filter id="grain" x="0" y="0" width="100%" height="100%">
    <feTurbulence type="fractalNoise" baseFrequency="0.9" numOctaves="2" seed="7"/>
    <feColorMatrix values="0 0 0 0 1  0 0 0 0 1  0 0 0 0 1  0 0 0 0.06 0"/>
    <feComposite in2="SourceGraphic" operator="in"/>
  </filter>
  <filter id="shadow" x="-20%" y="-20%" width="140%" height="150%">
    <feDropShadow dx="0" dy="12" stdDeviation="14" flood-color="#000" flood-opacity="0.45"/>
  </filter>
</defs>
<rect width="1280" height="320" fill="#141311"/>
<rect width="1280" height="320" fill="#000" filter="url(#grain)"/>
<g stroke="#34312B" stroke-opacity="0.45" stroke-width="1"><line x1="0" y1="0" x2="0" y2="320"/><line x1="48" y1="0" x2="48" y2="320"/><line x1="96" y1="0" x2="96" y2="320"/><line x1="144" y1="0" x2="144" y2="320"/><line x1="192" y1="0" x2="192" y2="320"/><line x1="240" y1="0" x2="240" y2="320"/><line x1="288" y1="0" x2="288" y2="320"/><line x1="336" y1="0" x2="336" y2="320"/><line x1="384" y1="0" x2="384" y2="320"/><line x1="432" y1="0" x2="432" y2="320"/><line x1="480" y1="0" x2="480" y2="320"/><line x1="528" y1="0" x2="528" y2="320"/><line x1="576" y1="0" x2="576" y2="320"/><line x1="624" y1="0" x2="624" y2="320"/><line x1="672" y1="0" x2="672" y2="320"/><line x1="720" y1="0" x2="720" y2="320"/><line x1="768" y1="0" x2="768" y2="320"/><line x1="816" y1="0" x2="816" y2="320"/><line x1="864" y1="0" x2="864" y2="320"/><line x1="912" y1="0" x2="912" y2="320"/><line x1="960" y1="0" x2="960" y2="320"/><line x1="1008" y1="0" x2="1008" y2="320"/><line x1="1056" y1="0" x2="1056" y2="320"/><line x1="1104" y1="0" x2="1104" y2="320"/><line x1="1152" y1="0" x2="1152" y2="320"/><line x1="1200" y1="0" x2="1200" y2="320"/><line x1="1248" y1="0" x2="1248" y2="320"/><line x1="0" y1="0" x2="1280" y2="0"/><line x1="0" y1="24" x2="1280" y2="24"/><line x1="0" y1="48" x2="1280" y2="48"/><line x1="0" y1="72" x2="1280" y2="72"/><line x1="0" y1="96" x2="1280" y2="96"/><line x1="0" y1="120" x2="1280" y2="120"/><line x1="0" y1="144" x2="1280" y2="144"/><line x1="0" y1="168" x2="1280" y2="168"/><line x1="0" y1="192" x2="1280" y2="192"/><line x1="0" y1="216" x2="1280" y2="216"/><line x1="0" y1="240" x2="1280" y2="240"/><line x1="0" y1="264" x2="1280" y2="264"/><line x1="0" y1="288" x2="1280" y2="288"/><line x1="0" y1="312" x2="1280" y2="312"/></g>
<g opacity="1"><polygon points="840.0,197.6 842.6,197.6 845.1,197.6 847.7,197.6 850.2,197.6 852.8,197.6 855.3,197.6 857.9,197.6 860.4,197.6 863.0,182.6 865.6,181.7 868.1,181.6 870.7,181.6 873.2,181.6 875.8,181.6 878.3,181.6 880.9,181.6 883.4,181.6 886.0,181.6 888.6,181.6 891.1,181.6 893.7,181.6 896.2,181.6 898.8,181.6 901.3,181.6 903.9,181.6 906.4,181.6 909.0,181.6 911.6,181.6 914.1,181.6 916.7,166.8 919.2,165.8 921.8,165.6 924.3,165.6 926.9,165.6 929.4,165.6 932.0,165.6 934.6,165.6 937.1,165.6 939.7,165.6 942.2,165.6 944.8,158.0 947.3,157.6 949.9,159.4 952.4,159.2 955.0,158.6 957.6,157.8 960.1,157.0 962.7,156.3 965.2,155.9 967.8,155.9 970.3,156.4 972.9,157.1 975.4,158.0 978.0,158.8 980.6,159.3 983.1,159.3 985.7,159.0 988.2,158.3 990.8,157.5 993.3,156.6 995.9,156.0 998.4,163.4 1001.0,164.0 1003.6,165.6 1006.1,165.6 1008.7,165.6 1011.2,165.6 1013.8,165.6 1016.3,165.6 1018.9,165.6 1021.4,165.6 1024.0,165.6 1026.6,181.1 1029.1,181.6 1031.7,181.6 1034.2,181.6 1036.8,181.6 1039.3,181.6 1041.9,181.6 1044.4,181.6 1047.0,181.6 1049.6,181.6 1052.1,196.5 1054.7,197.4 1057.2,197.6 1059.8,197.6 1062.3,197.6 1064.9,197.6 1067.4,197.6 1070.0,197.6 1072.6,197.6 1075.1,197.6 1077.7,197.6 1080.2,205.3 1082.8,205.6 1085.3,205.6 1087.9,205.6 1090.4,205.6 1093.0,205.6 1095.6,205.6 1098.1,205.6 1100.7,205.6 1103.2,205.6 1105.8,198.3 1108.3,197.8 1110.9,197.6 1113.4,197.6 1116.0,197.6 1118.6,197.6 1121.1,197.6 1123.7,197.6 1126.2,197.6 1128.8,197.6 1131.3,197.6 1133.9,182.4 1136.4,181.7 1139.0,181.6 1141.6,181.6 1144.1,181.6 1146.7,181.6 1149.2,181.6 1151.8,181.6 1154.3,181.6 1156.9,181.6 1159.4,181.6 1162.0,166.0 1164.6,165.6 1167.1,165.6 1169.7,165.6 1172.2,165.6 1174.8,165.6 1177.3,165.6 1179.9,165.6 1182.4,165.6 1185.0,165.6 1187.6,143.2 1190.1,141.9 1192.7,139.9 1195.2,140.4 1197.8,141.2 1200.3,142.0 1202.9,142.8 1205.4,143.3 1208.0,143.3 1210.6,143.0 1213.1,142.3 1215.7,141.4 1218.2,140.6 1220.8,140.0 1223.3,139.8 1225.9,140.1 1228.4,140.7 1231.0,141.5 1233.6,142.4 1236.1,143.0 1238.7,143.3 1241.2,158.0 1243.8,158.4 1246.3,157.9 1248.9,157.0 1251.4,156.3 1254.0,155.9 1256.6,155.9 1259.1,156.3 1261.7,157.0 1264.2,157.9 1266.8,158.7 1269.3,166.8 1271.9,167.3 1274.4,165.6 1277.0,165.6 1279.6,165.6 1282.1,165.6 1284.7,165.6 1287.2,165.6 1289.8,165.6 1292.3,165.6 1294.9,165.6 1297.4,181.2 1300.0,181.6 1300.0,186.4 1297.4,186.0 1294.9,170.4 1292.3,170.4 1289.8,170.4 1287.2,170.4 1284.7,170.4 1282.1,170.4 1279.6,170.4 1277.0,170.4 1274.4,170.4 1271.9,172.1 1269.3,171.6 1266.8,163.5 1264.2,162.7 1261.7,161.8 1259.1,161.1 1256.6,160.7 1254.0,160.7 1251.4,161.1 1248.9,161.8 1246.3,162.7 1243.8,163.2 1241.2,162.8 1238.7,148.1 1236.1,147.8 1233.6,147.2 1231.0,146.3 1228.4,145.5 1225.9,144.9 1223.3,144.6 1220.8,144.8 1218.2,145.4 1215.7,146.2 1213.1,147.1 1210.6,147.8 1208.0,148.1 1205.4,148.1 1202.9,147.6 1200.3,146.8 1197.8,146.0 1195.2,145.2 1192.7,144.7 1190.1,146.7 1187.6,148.0 1185.0,170.4 1182.4,170.4 1179.9,170.4 1177.3,170.4 1174.8,170.4 1172.2,170.4 1169.7,170.4 1167.1,170.4 1164.6,170.4 1162.0,170.8 1159.4,186.4 1156.9,186.4 1154.3,186.4 1151.8,186.4 1149.2,186.4 1146.7,186.4 1144.1,186.4 1141.6,186.4 1139.0,186.4 1136.4,186.5 1133.9,187.2 1131.3,202.4 1128.8,202.4 1126.2,202.4 1123.7,202.4 1121.1,202.4 1118.6,202.4 1116.0,202.4 1113.4,202.4 1110.9,202.4 1108.3,202.6 1105.8,203.1 1103.2,210.4 1100.7,210.4 1098.1,210.4 1095.6,210.4 1093.0,210.4 1090.4,210.4 1087.9,210.4 1085.3,210.4 1082.8,210.4 1080.2,210.1 1077.7,202.4 1075.1,202.4 1072.6,202.4 1070.0,202.4 1067.4,202.4 1064.9,202.4 1062.3,202.4 1059.8,202.4 1057.2,202.4 1054.7,202.2 1052.1,201.3 1049.6,186.4 1047.0,186.4 1044.4,186.4 1041.9,186.4 1039.3,186.4 1036.8,186.4 1034.2,186.4 1031.7,186.4 1029.1,186.4 1026.6,185.9 1024.0,170.4 1021.4,170.4 1018.9,170.4 1016.3,170.4 1013.8,170.4 1011.2,170.4 1008.7,170.4 1006.1,170.4 1003.6,170.4 1001.0,168.8 998.4,168.2 995.9,160.8 993.3,161.4 990.8,162.3 988.2,163.1 985.7,163.8 983.1,164.1 980.6,164.1 978.0,163.6 975.4,162.8 972.9,161.9 970.3,161.2 967.8,160.7 965.2,160.7 962.7,161.1 960.1,161.8 957.6,162.6 955.0,163.4 952.4,164.0 949.9,164.2 947.3,162.4 944.8,162.8 942.2,170.4 939.7,170.4 937.1,170.4 934.6,170.4 932.0,170.4 929.4,170.4 926.9,170.4 924.3,170.4 921.8,170.4 919.2,170.6 916.7,171.6 914.1,186.4 911.6,186.4 909.0,186.4 906.4,186.4 903.9,186.4 901.3,186.4 898.8,186.4 896.2,186.4 893.7,186.4 891.1,186.4 888.6,186.4 886.0,186.4 883.4,186.4 880.9,186.4 878.3,186.4 875.8,186.4 873.2,186.4 870.7,186.4 868.1,186.4 865.6,186.5 863.0,187.4 860.4,202.4 857.9,202.4 855.3,202.4 852.8,202.4 850.2,202.4 847.7,202.4 845.1,202.4 842.6,202.4 840.0,202.4" fill="#8CC1EE" fill-opacity="0.22"/>
<polyline points="840.0,200.0 842.6,200.0 845.1,200.0 847.7,200.0 850.2,200.0 852.8,200.0 855.3,200.0 857.9,200.0 860.4,200.0 863.0,185.0 865.6,184.1 868.1,184.0 870.7,184.0 873.2,184.0 875.8,184.0 878.3,184.0 880.9,184.0 883.4,184.0 886.0,184.0 888.6,184.0 891.1,184.0 893.7,184.0 896.2,184.0 898.8,184.0 901.3,184.0 903.9,184.0 906.4,184.0 909.0,184.0 911.6,184.0 914.1,184.0 916.7,169.2 919.2,168.2 921.8,168.0 924.3,168.0 926.9,168.0 929.4,168.0 932.0,168.0 934.6,168.0 937.1,168.0 939.7,168.0 942.2,168.0 944.8,160.4 947.3,160.0 949.9,161.8 952.4,161.6 955.0,161.0 957.6,160.2 960.1,159.4 962.7,158.7 965.2,158.3 967.8,158.3 970.3,158.8 972.9,159.5 975.4,160.4 978.0,161.2 980.6,161.7 983.1,161.7 985.7,161.4 988.2,160.7 990.8,159.9 993.3,159.0 995.9,158.4 998.4,165.8 1001.0,166.4 1003.6,168.0 1006.1,168.0 1008.7,168.0 1011.2,168.0 1013.8,168.0 1016.3,168.0 1018.9,168.0 1021.4,168.0 1024.0,168.0 1026.6,183.5 1029.1,184.0 1031.7,184.0 1034.2,184.0 1036.8,184.0 1039.3,184.0 1041.9,184.0 1044.4,184.0 1047.0,184.0 1049.6,184.0 1052.1,198.9 1054.7,199.8 1057.2,200.0 1059.8,200.0 1062.3,200.0 1064.9,200.0 1067.4,200.0 1070.0,200.0 1072.6,200.0 1075.1,200.0 1077.7,200.0 1080.2,207.7 1082.8,208.0 1085.3,208.0 1087.9,208.0 1090.4,208.0 1093.0,208.0 1095.6,208.0 1098.1,208.0 1100.7,208.0 1103.2,208.0 1105.8,200.7 1108.3,200.2 1110.9,200.0 1113.4,200.0 1116.0,200.0 1118.6,200.0 1121.1,200.0 1123.7,200.0 1126.2,200.0 1128.8,200.0 1131.3,200.0 1133.9,184.8 1136.4,184.1 1139.0,184.0 1141.6,184.0 1144.1,184.0 1146.7,184.0 1149.2,184.0 1151.8,184.0 1154.3,184.0 1156.9,184.0 1159.4,184.0 1162.0,168.4 1164.6,168.0 1167.1,168.0 1169.7,168.0 1172.2,168.0 1174.8,168.0 1177.3,168.0 1179.9,168.0 1182.4,168.0 1185.0,168.0 1187.6,145.6 1190.1,144.3 1192.7,142.3 1195.2,142.8 1197.8,143.6 1200.3,144.4 1202.9,145.2 1205.4,145.7 1208.0,145.7 1210.6,145.4 1213.1,144.7 1215.7,143.8 1218.2,143.0 1220.8,142.4 1223.3,142.2 1225.9,142.5 1228.4,143.1 1231.0,143.9 1233.6,144.8 1236.1,145.4 1238.7,145.7 1241.2,160.4 1243.8,160.8 1246.3,160.3 1248.9,159.4 1251.4,158.7 1254.0,158.3 1256.6,158.3 1259.1,158.7 1261.7,159.4 1264.2,160.3 1266.8,161.1 1269.3,169.2 1271.9,169.7 1274.4,168.0 1277.0,168.0 1279.6,168.0 1282.1,168.0 1284.7,168.0 1287.2,168.0 1289.8,168.0 1292.3,168.0 1294.9,168.0 1297.4,183.6 1300.0,184.0" fill="none" stroke="#8CC1EE" stroke-opacity="0.9" stroke-width="0.72" stroke-linejoin="round"/>
<polyline points="840.0,198.6 842.6,198.3 845.1,198.1 847.7,197.9 850.2,197.8 852.8,197.9 855.3,198.0 857.9,198.3 860.4,198.6 863.0,184.0 865.6,183.6 868.1,183.8 870.7,184.2 873.2,184.5 875.8,184.7 878.3,184.9 880.9,184.9 883.4,184.9 886.0,184.8 888.6,184.7 891.1,184.6 893.7,184.5 896.2,184.5 898.8,184.5 901.3,184.6 903.9,184.8 906.4,185.0 909.0,185.2 911.6,185.5 914.1,185.7 916.7,171.0 919.2,170.2 921.8,169.9 924.3,169.8 926.9,169.6 929.4,169.2 932.0,168.8 934.6,168.4 937.1,167.9 939.7,167.5 942.2,167.1 944.8,159.2 947.3,158.7 949.9,160.3 952.4,160.2 955.0,159.7 957.6,159.0 960.1,158.3 962.7,157.8 965.2,157.5 967.8,157.7 970.3,158.1 972.9,158.8 975.4,159.6 978.0,160.2 980.6,160.5 983.1,160.4 985.7,160.0 988.2,159.2 990.8,158.3 993.3,157.6 995.9,157.2 998.4,164.8 1001.0,165.8 1003.6,167.8 1006.1,168.3 1008.7,168.7 1011.2,169.1 1013.8,169.5 1016.3,169.7 1018.9,169.8 1021.4,169.9 1024.0,169.8 1026.6,185.2 1029.1,185.4 1031.7,185.2 1034.2,185.0 1036.8,184.8 1039.3,184.6 1041.9,184.5 1044.4,184.5 1047.0,184.6 1049.6,184.6 1052.1,199.7 1054.7,200.7 1057.2,201.0 1059.8,201.0 1062.3,201.0 1064.9,200.8 1067.4,200.6 1070.0,200.3 1072.6,199.9 1075.1,199.5 1077.7,199.1 1080.2,206.4 1082.8,206.3 1085.3,206.1 1087.9,205.9 1090.4,205.9 1093.0,205.9 1095.6,206.1 1098.1,206.3 1100.7,206.6 1103.2,206.9 1105.8,199.9 1108.3,199.6 1110.9,199.7 1113.4,199.8 1116.0,199.9 1118.6,199.9 1121.1,199.8" fill="none" stroke="#C6EE6A" stroke-opacity="0.18" stroke-width="4.40" stroke-linejoin="round" stroke-linecap="round"/>
<polyline points="840.0,198.6 842.6,198.3 845.1,198.1 847.7,197.9 850.2,197.8 852.8,197.9 855.3,198.0 857.9,198.3 860.4,198.6 863.0,184.0 865.6,183.6 868.1,183.8 870.7,184.2 873.2,184.5 875.8,184.7 878.3,184.9 880.9,184.9 883.4,184.9 886.0,184.8 888.6,184.7 891.1,184.6 893.7,184.5 896.2,184.5 898.8,184.5 901.3,184.6 903.9,184.8 906.4,185.0 909.0,185.2 911.6,185.5 914.1,185.7 916.7,171.0 919.2,170.2 921.8,169.9 924.3,169.8 926.9,169.6 929.4,169.2 932.0,168.8 934.6,168.4 937.1,167.9 939.7,167.5 942.2,167.1 944.8,159.2 947.3,158.7 949.9,160.3 952.4,160.2 955.0,159.7 957.6,159.0 960.1,158.3 962.7,157.8 965.2,157.5 967.8,157.7 970.3,158.1 972.9,158.8 975.4,159.6 978.0,160.2 980.6,160.5 983.1,160.4 985.7,160.0 988.2,159.2 990.8,158.3 993.3,157.6 995.9,157.2 998.4,164.8 1001.0,165.8 1003.6,167.8 1006.1,168.3 1008.7,168.7 1011.2,169.1 1013.8,169.5 1016.3,169.7 1018.9,169.8 1021.4,169.9 1024.0,169.8 1026.6,185.2 1029.1,185.4 1031.7,185.2 1034.2,185.0 1036.8,184.8 1039.3,184.6 1041.9,184.5 1044.4,184.5 1047.0,184.6 1049.6,184.6 1052.1,199.7 1054.7,200.7 1057.2,201.0 1059.8,201.0 1062.3,201.0 1064.9,200.8 1067.4,200.6 1070.0,200.3 1072.6,199.9 1075.1,199.5 1077.7,199.1 1080.2,206.4 1082.8,206.3 1085.3,206.1 1087.9,205.9 1090.4,205.9 1093.0,205.9 1095.6,206.1 1098.1,206.3 1100.7,206.6 1103.2,206.9 1105.8,199.9 1108.3,199.6 1110.9,199.7 1113.4,199.8 1116.0,199.9 1118.6,199.9 1121.1,199.8" fill="none" stroke="#C6EE6A" stroke-width="1.60" stroke-linejoin="round" stroke-linecap="round"/>
<line x1="1123.7" y1="120.0" x2="1123.7" y2="232.0" stroke="#C6EE6A" stroke-width="0.96"/>
<circle cx="1123.7" cy="199.7" r="3.36" fill="#0D0C0B" stroke="#C6EE6A" stroke-width="1.44"/></g>
<rect x="98.75" y="98.75" width="122.50" height="122.50" rx="30.80" fill="url(#glass)"/>
  <rect x="98.75" y="98.75" width="122.50" height="122.50" rx="30.80" fill="none" stroke="#F2EDE3" stroke-width="11.90"/>
  <rect x="139.00" y="125.00" width="42.00" height="61.60" rx="21.00" fill="url(#capsule)"/>
  <line x1="148.24" y1="134.86" x2="171.76" y2="134.86" stroke="#6F6A60" stroke-opacity="0.55" stroke-width="1.68" stroke-linecap="round"/>
  <line x1="148.24" y1="141.02" x2="171.76" y2="141.02" stroke="#6F6A60" stroke-opacity="0.55" stroke-width="1.68" stroke-linecap="round"/>
  <line x1="148.24" y1="147.18" x2="171.76" y2="147.18" stroke="#6F6A60" stroke-opacity="0.55" stroke-width="1.68" stroke-linecap="round"/>
  <line x1="148.24" y1="153.34" x2="171.76" y2="153.34" stroke="#6F6A60" stroke-opacity="0.55" stroke-width="1.68" stroke-linecap="round"/>
  <rect x="155.10" y="185.20" width="9.80" height="21.00" fill="#F2EDE3"/>
  <circle cx="221.25" cy="98.75" r="26.60" fill="url(#tile)"/>
  <circle cx="221.25" cy="98.75" r="42.00" fill="url(#ledglow)"/>
  <circle cx="221.25" cy="98.75" r="16.10" fill="#C6EE6A"/>
  <circle cx="217.05" cy="93.85" r="5.60" fill="#ffffff" fill-opacity="0.6"/>
<path d="M302.932 168.0H291.532L273.368 112.292H283.704L292.368 139.956L297.308 158.348H297.612L302.476 139.956L311.29200000000003 112.292H321.248ZM322.54 147.176Q322.54 140.564 324.896 135.66199999999998Q327.252 130.76 331.584 128.1Q335.916 125.44 341.76800000000003 125.44Q347.62 125.44 351.99 128.1Q356.36 130.76 358.678 135.66199999999998Q360.996 140.564 360.996 147.176Q360.996 153.788 358.678 158.728Q356.36 163.668 351.99 166.328Q347.62 168.988 341.76800000000003 168.988Q335.916 168.988 331.584 166.328Q327.252 163.668 324.896 158.728Q322.54 153.788 322.54 147.176ZM350.812 150.976V143.452Q350.812 138.588 348.418 135.928Q346.024 133.268 341.76800000000003 133.268Q337.588 133.268 335.194 135.89Q332.8 138.512 332.8 143.452V150.976Q332.8 155.84 335.156 158.462Q337.512 161.084 341.76800000000003 161.084Q346.024 161.084 348.418 158.462Q350.812 155.84 350.812 150.976ZM368.672 114.952V113.50800000000001Q368.672 111.22800000000001 370.07800000000003 109.89800000000001Q371.48400000000004 108.56800000000001 374.372 108.56800000000001Q377.26 108.56800000000001 378.666 109.89800000000001Q380.072 111.22800000000001 380.072 113.50800000000001V114.952Q380.072 117.232 378.666 118.562Q377.26 119.892 374.372 119.892Q371.48400000000004 119.892 370.07800000000003 118.562Q368.672 117.232 368.672 114.952ZM379.236 168.0H369.50800000000004V126.428H379.236ZM387.672 147.176Q387.672 137.068 392.688 131.25400000000002Q397.704 125.44 406.824 125.44Q412.82800000000003 125.44 416.97 128.176Q421.112 130.912 423.012 135.852L415.108 139.5Q414.272 136.612 412.182 134.978Q410.09200000000004 133.344 406.824 133.344Q402.492 133.344 400.212 136.07999999999998Q397.932 138.816 397.932 143.452V150.9Q397.932 155.612 400.212 158.348Q402.492 161.084 406.824 161.084Q410.244 161.084 412.41 159.336Q414.576 157.588 415.868 154.472L423.31600000000003 158.044Q421.264 163.44 417.04600000000005 166.214Q412.82800000000003 168.988 406.824 168.988Q397.78000000000003 168.988 392.726 163.136Q387.672 157.284 387.672 147.176ZM427.34400000000005 147.176Q427.34400000000005 140.64 429.624 135.7Q431.90400000000005 130.76 436.27400000000006 128.1Q440.64400000000006 125.44 446.57200000000006 125.44Q452.72800000000007 125.44 456.946 128.214Q461.16400000000004 130.988 463.254 135.7Q465.34400000000005 140.412 465.34400000000005 146.34V149.608H437.528V150.748Q437.528 155.536 440.18800000000005 158.348Q442.84800000000007 161.16 447.78800000000007 161.16Q451.36 161.16 453.982 159.602Q456.60400000000004 158.044 458.58000000000004 155.308L463.90000000000003 161.084Q461.39200000000005 164.732 456.946 166.86Q452.50000000000006 168.988 446.87600000000003 168.988Q440.79600000000005 168.988 436.42600000000004 166.328Q432.05600000000004 163.668 429.70000000000005 158.728Q427.34400000000005 153.788 427.34400000000005 147.176ZM437.528 143.60399999999998H455.16V142.844Q455.16 138.208 452.918 135.51Q450.67600000000004 132.812 446.648 132.812Q442.54400000000004 132.812 440.03600000000006 135.62400000000002Q437.528 138.436 437.528 142.996ZM474.46400000000006 168.0V112.292H500.00000000000006Q506.76400000000007 112.292 510.7160000000001 116.206Q514.6680000000001 120.12 514.6680000000001 126.58Q514.6680000000001 132.43200000000002 511.8560000000001 135.32Q509.0440000000001 138.208 504.8640000000001 138.512V139.044Q507.52400000000006 139.12 510.2600000000001 140.488Q512.9960000000001 141.856 514.8580000000001 144.744Q516.72 147.632 516.72 152.04Q516.72 156.448 514.8580000000001 160.096Q512.9960000000001 163.744 509.72800000000007 165.872Q506.46000000000004 168.0 502.35600000000005 168.0ZM497.87200000000007 135.7Q500.91200000000003 135.7 502.58400000000006 134.066Q504.2560000000001 132.43200000000002 504.2560000000001 129.46800000000002V127.036Q504.2560000000001 124.148 502.58400000000006 122.476Q500.91200000000003 120.804 497.87200000000007 120.804H484.4960000000001V135.7ZM499.4680000000001 159.488Q502.58400000000006 159.488 504.4080000000001 157.74Q506.2320000000001 155.992 506.2320000000001 152.952V150.292Q506.2320000000001 147.328 504.4460000000001 145.656Q502.6600000000001 143.984 499.4680000000001 143.984H484.4960000000001V159.488ZM522.9520000000001 147.176Q522.9520000000001 140.564 525.3080000000001 135.66199999999998Q527.6640000000001 130.76 531.9960000000001 128.1Q536.3280000000001 125.44 542.1800000000001 125.44Q548.0320000000002 125.44 552.4020000000002 128.1Q556.7720000000002 130.76 559.0900000000001 135.66199999999998Q561.4080000000001 140.564 561.4080000000001 147.176Q561.4080000000001 153.788 559.0900000000001 158.728Q556.7720000000002 163.668 552.4020000000002 166.328Q548.0320000000002 168.988 542.1800000000001 168.988Q536.3280000000001 168.988 531.9960000000001 166.328Q527.6640000000001 163.668 525.3080000000001 158.728Q522.9520000000001 153.788 522.9520000000001 147.176ZM551.2240000000002 150.976V143.452Q551.2240000000002 138.588 548.8300000000002 135.928Q546.4360000000001 133.268 542.1800000000001 133.268Q538.0000000000001 133.268 535.6060000000001 135.89Q533.2120000000001 138.512 533.2120000000001 143.452V150.976Q533.2120000000001 155.84 535.5680000000001 158.462Q537.9240000000001 161.084 542.1800000000001 161.084Q546.4360000000001 161.084 548.8300000000002 158.462Q551.2240000000002 155.84 551.2240000000002 150.976ZM567.1080000000001 147.176Q567.1080000000001 140.564 569.464 135.66199999999998Q571.82 130.76 576.152 128.1Q580.484 125.44 586.336 125.44Q592.1880000000001 125.44 596.5580000000001 128.1Q600.9280000000001 130.76 603.2460000000001 135.66199999999998Q605.5640000000001 140.564 605.5640000000001 147.176Q605.5640000000001 153.788 603.2460000000001 158.728Q600.9280000000001 163.668 596.5580000000001 166.328Q592.1880000000001 168.988 586.336 168.988Q580.484 168.988 576.152 166.328Q571.82 163.668 569.464 158.728Q567.1080000000001 153.788 567.1080000000001 147.176ZM595.3800000000001 150.976V143.452Q595.3800000000001 138.588 592.9860000000001 135.928Q590.5920000000001 133.268 586.336 133.268Q582.1560000000001 133.268 579.7620000000001 135.89Q577.368 138.512 577.368 143.452V150.976Q577.368 155.84 579.724 158.462Q582.08 161.084 586.336 161.084Q590.5920000000001 161.084 592.9860000000001 158.462Q595.3800000000001 155.84 595.3800000000001 150.976ZM626.312 168.0Q621.296 168.0 618.674 165.34Q616.052 162.68 616.052 157.816V134.18H609.744V126.428H613.0880000000001Q615.292 126.428 616.166 125.402Q617.0400000000001 124.376 617.0400000000001 122.172V115.02799999999999H625.78V126.428H634.292V134.18H625.78V160.248H633.6840000000001V168.0ZM642.576 168.0V108.94800000000001H652.304V133.268H652.684Q654.052 129.696 656.902 127.568Q659.752 125.44 664.312 125.44Q670.772 125.44 674.23 129.696Q677.688 133.952 677.688 141.704V168.0H667.96V142.692Q667.96 138.056 666.212 135.776Q664.464 133.496 660.816 133.496Q657.244 133.496 654.774 135.282Q652.304 137.068 652.304 140.336V168.0Z" fill="#F2EDE3"/>
<path d="M278.496 201.128C278.88 201.944 279.288 203.024 279.48 203.672L280.752 203.24C280.56 202.64 280.104 201.608 279.72 200.792ZM287.952 203.36C288.552 204.92 289.248 207.008 289.512 208.256L290.832 207.704C290.52 206.528 289.824 204.488 289.176 202.952ZM293.472 203.38400000000001C294.072 204.92 294.72 206.936 295.008 208.112L296.352 207.632C296.04 206.504 295.344 204.536 294.744 203.048ZM285.696 200.38400000000001C285.384 201.392 284.784 202.808 284.304 203.792H283.512V200.096C285.048 199.928 286.488 199.688 287.616 199.4L286.632 198.128C284.448 198.704 280.464 199.088 277.272 199.28C277.44 199.64 277.632 200.216 277.704 200.552C279.048 200.504 280.512 200.40800000000002 281.976 200.264V203.792H277.176V205.184H281.112C279.984 206.768 278.16 208.448 276.672 209.336C276.912 209.744 277.272 210.44 277.416 210.896C278.952 209.888 280.728 208.016 281.976 206.192V209.792H283.512V206.144C284.904 207.488 286.272 209.096 286.944 210.224L288.096 209.24C287.376 208.088 285.912 206.504 284.52 205.184H287.784V203.792H285.696C286.152 202.928 286.632 201.848 287.088 200.864ZM282.048 215.144V217.232H279.6V215.144ZM283.344 215.144H285.864V217.232H283.344ZM282.048 213.848H279.6V211.88H282.048ZM283.344 213.848V211.88H285.864V213.848ZM278.184 210.464V219.896H279.6V218.648H285.864V219.632H287.328V210.464ZM287.472 213.968 288.408 215.216C289.392 213.968 290.472 212.504 291.432 211.088V217.616C291.432 217.904 291.336 218.0 291.048 218.024C290.736 218.048 289.776 218.048 288.76800000000003 218.0C288.984 218.456 289.224 219.248 289.272 219.68C290.64 219.68 291.624 219.656 292.2 219.368C292.776 219.08 292.944 218.552 292.944 217.64V199.016H288.072V200.552H291.432V210.944L290.592 209.768C289.44 211.4 288.216 212.984 287.472 213.968ZM293.016 213.584 293.952 214.856C294.888 213.68 295.92 212.288 296.832 210.944V217.616C296.832 217.904 296.736 218.0 296.448 218.024C296.136 218.048 295.128 218.048 294.072 218.0C294.288 218.456 294.504 219.2 294.552 219.656C296.016 219.656 297.0 219.632 297.6 219.344C298.2 219.056 298.392 218.552 298.392 217.616V199.016H293.496V200.552H296.832V210.536L296.088 209.504C294.936 211.112 293.736 212.648 293.016 213.584ZM311.904 203.912H319.464V206.192H311.904ZM311.904 200.264H319.464V202.544H311.904ZM310.176 198.824V207.656H321.264V198.824ZM301.896 200.12V215.84H303.576V213.536H308.064V200.12ZM303.576 201.8H306.36V211.856H303.576ZM311.184 214.832H320.304V217.376H311.184ZM311.184 213.296V210.896H320.304V213.296ZM309.408 209.336V219.896H311.184V218.936H320.304V219.776H322.128V209.336ZM326.064 210.464 326.136 211.856C329.64 211.808 334.44 211.736 339.408 211.592V213.056H325.104V214.544H330.144L328.944 215.552C330.384 216.44 332.088 217.784 332.904 218.72L334.2 217.52C333.384 216.632 331.68 215.384 330.264 214.544H339.408V217.952C339.408 218.24 339.312 218.36 338.904 218.384C338.52 218.384 337.176 218.384 335.712 218.336C335.952 218.792 336.216 219.464 336.288 219.92C338.208 219.92 339.432 219.92 340.2 219.656C340.944 219.416 341.16 218.936 341.16 218.0V214.544H346.92V213.056H341.16V211.544L343.584 211.472C344.112 211.808 344.568 212.12 344.928 212.408L345.984 211.4C345.0 210.656 343.32 209.72 341.712 209.072H344.472V202.496H336.84V201.128H345.936V199.688H336.84V197.864H335.064V199.688H325.8V201.128H335.064V202.496H327.672V209.072H335.064V210.392ZM329.376 206.36H335.064V207.848H329.376ZM336.84 206.36H342.696V207.848H336.84ZM329.376 203.72H335.064V205.184H329.376ZM336.84 203.72H342.696V205.184H336.84ZM339.552 209.576C340.152 209.768 340.776 210.032 341.4 210.32L336.84 210.392V209.072H340.128ZM351.672 199.52V208.232C351.672 211.61599999999999 351.432 215.864 348.768 218.864C349.176 219.08 349.896 219.68 350.16 220.04C352.008 218.0 352.824 215.24 353.184 212.552H359.208V219.704H361.032V212.552H367.512V217.472C367.512 217.904 367.344 218.048 366.864 218.072C366.408 218.096 364.776 218.12 363.096 218.048C363.336 218.528 363.624 219.32 363.72 219.776C365.976 219.8 367.368 219.776 368.184 219.488C369.0 219.2 369.288 218.648 369.288 217.472V199.52ZM353.448 201.248H359.208V205.112H353.448ZM367.512 201.248V205.112H361.032V201.248ZM353.448 206.816H359.208V210.848H353.352C353.424 209.936 353.448 209.048 353.448 208.232ZM367.512 206.816V210.848H361.032V206.816ZM379.79999999999995 218.0H384.28799999999995C389.592 218.0 392.472 214.712 392.472 209.144C392.472 203.528 389.592 200.40800000000002 384.19199999999995 200.40800000000002H379.79999999999995ZM382.008 216.176V202.208H384.0C388.152 202.208 390.19199999999995 204.68 390.19199999999995 209.144C390.19199999999995 213.584 388.152 216.176 384.0 216.176ZM393.71999999999997 218.0H395.95199999999994L397.65599999999995 212.624H404.08799999999997L405.768 218.0H408.11999999999995L402.14399999999995 200.40800000000002H399.67199999999997ZM398.20799999999997 210.872 399.07199999999995 208.16C399.69599999999997 206.168 400.272 204.272 400.82399999999996 202.208H400.91999999999996C401.496 204.248 402.04799999999994 206.168 402.69599999999997 208.16L403.53599999999994 210.872ZM412.55999999999995 218.0H415.19999999999993L417.816 207.392C418.1039999999999 206.0 418.43999999999994 204.728 418.70399999999995 203.38400000000001H418.79999999999995C419.08799999999997 204.728 419.352 206.0 419.66399999999993 207.392L422.328 218.0H425.01599999999996L428.63999999999993 200.40800000000002H426.52799999999996L424.63199999999995 209.984C424.31999999999994 211.88 423.9839999999999 213.776 423.67199999999997 215.696H423.52799999999996C423.09599999999995 213.776 422.71199999999993 211.856 422.28 209.984L419.83199999999994 200.40800000000002H417.792L415.36799999999994 209.984C414.936 211.88 414.50399999999996 213.776 414.11999999999995 215.696H414.02399999999994C413.66399999999993 213.776 413.328 211.88 412.96799999999996 209.984L411.11999999999995 200.40800000000002H408.84ZM435.7679999999999 212.0H473.78399999999993V210.512H435.7679999999999ZM488.2319999999999 212.864H498.6959999999999V214.544H488.2319999999999ZM488.2319999999999 211.592V209.96H498.6959999999999V211.592ZM488.2319999999999 215.792H498.6959999999999V217.568H488.2319999999999ZM500.0879999999999 198.032C496.2479999999999 198.8 488.9519999999999 199.16 483.0959999999999 199.208C483.2639999999999 199.59199999999998 483.4319999999999 200.192 483.4559999999999 200.6C485.54399999999987 200.6 487.7999999999999 200.552 490.05599999999987 200.456C489.8879999999999 201.008 489.7199999999999 201.56 489.5279999999999 202.112H483.4319999999999V203.552H488.9999999999999C488.7599999999999 204.152 488.49599999999987 204.752 488.1839999999999 205.352H481.6799999999999V206.84H487.3679999999999C485.8559999999999 209.38400000000001 483.7919999999999 211.592 481.05599999999987 213.152C481.4399999999999 213.512 481.9679999999999 214.16 482.2079999999999 214.568C483.8639999999999 213.584 485.2799999999999 212.384 486.5039999999999 211.016V219.968H488.2319999999999V219.008H498.6959999999999V219.968H500.49599999999987V208.52H488.4239999999999C488.7839999999999 207.968 489.1199999999999 207.416 489.4319999999999 206.84H502.8479999999999V205.352H490.1759999999999C490.4639999999999 204.752 490.7279999999999 204.152 490.9679999999999 203.552H501.4559999999999V202.112H491.4959999999999L492.0479999999999 200.36C495.5039999999999 200.144 498.8159999999999 199.808 501.2399999999999 199.328ZM524.8799999999999 203.144C523.1519999999999 204.848 520.9199999999998 206.336 518.3999999999999 207.632H515.5919999999999V205.472H521.4479999999999V203.936H515.5919999999999V202.16H513.8159999999999V203.936H507.6719999999999V205.472H513.8159999999999V207.632H505.6559999999999V209.24H514.8719999999998C511.7999999999999 210.488 508.4879999999999 211.448 505.1999999999999 212.144C505.4879999999999 212.48 505.9199999999999 213.248 506.0879999999999 213.632C507.5279999999999 213.272 508.9679999999999 212.888 510.4079999999999 212.432V219.896H512.1599999999999V219.176H522.8639999999999V219.896H524.6879999999999V211.112H514.2239999999999C515.6879999999999 210.536 517.1519999999999 209.912 518.5199999999999 209.24H526.9199999999998V207.632H521.4479999999999C523.2479999999999 206.552 524.8559999999999 205.352 526.2479999999999 204.008ZM512.1599999999999 215.744H522.8639999999999V217.736H512.1599999999999ZM512.1599999999999 214.496V212.552H522.8639999999999V214.496ZM510.5279999999999 197.816V199.496H505.7039999999999V201.07999999999998H510.5279999999999V202.928H512.3279999999999V201.07999999999998H515.6879999999999V199.496H512.3279999999999V197.816ZM516.7439999999999 199.496V201.07999999999998H520.2719999999999V202.952H522.0719999999999V201.07999999999998H526.9439999999998V199.496H522.0719999999999V197.84H520.2719999999999V199.496ZM545.0159999999998 208.736C543.7199999999999 209.984 541.2959999999999 211.112 539.1599999999999 211.76C539.4959999999999 212.048 539.9279999999999 212.48 540.1679999999999 212.84C542.4479999999999 212.072 544.9199999999998 210.824 546.3839999999999 209.312ZM547.3199999999999 211.064C545.6879999999999 212.768 542.5199999999999 214.112 539.4719999999999 214.808C539.8319999999999 215.144 540.1919999999999 215.648 540.4079999999999 216.008C543.6479999999999 215.144 546.8399999999999 213.632 548.6639999999999 211.61599999999999ZM549.5519999999999 213.68C547.4159999999999 216.128 542.9999999999999 217.664 538.1759999999999 218.36C538.536 218.768 538.9199999999998 219.392 539.1119999999999 219.824C544.1999999999999 218.912 548.7119999999999 217.208 551.1119999999999 214.352ZM541.536 201.968H547.1999999999999C546.5039999999999 203.216 545.5679999999999 204.272 544.4399999999999 205.16C543.1439999999999 204.2 542.1599999999999 203.12 541.4879999999999 202.04ZM535.704 200.696V215.936H537.3119999999999V204.632C537.7199999999999 204.872 538.2719999999999 205.304 538.536 205.568C539.2559999999999 204.92 539.9519999999999 204.152 540.5999999999999 203.264C541.2719999999999 204.224 542.1359999999999 205.184 543.1919999999999 206.048C541.512 207.128 539.5439999999999 207.896 537.3599999999999 208.448C537.6719999999999 208.784 538.2239999999999 209.504 538.4159999999999 209.888C540.6719999999999 209.192 542.7599999999999 208.28 544.536 207.056C546.2399999999999 208.184 548.3279999999999 209.096 550.8239999999998 209.672C551.0399999999998 209.216 551.4959999999999 208.568 551.8319999999999 208.208C549.4799999999999 207.776 547.4639999999999 207.008 545.8319999999999 206.072C547.1759999999999 204.92 548.2799999999999 203.576 549.0959999999999 201.968H551.0639999999999V200.456H542.4239999999999C542.8319999999999 199.736 543.1679999999999 198.992 543.4799999999999 198.248L541.8239999999998 197.816C540.8399999999999 200.336 539.1839999999999 202.76 537.3119999999999 204.368V200.696ZM533.8559999999999 197.984C532.68 201.704 530.7839999999999 205.376 528.6959999999999 207.776C528.9839999999999 208.232 529.4639999999999 209.192 529.632 209.624C530.4239999999999 208.688 531.2159999999999 207.584 531.9359999999999 206.36V219.92H533.6399999999999V203.168C534.3599999999999 201.656 535.0079999999999 200.048 535.512 198.44ZM556.7759999999998 205.76V217.088H553.512V218.84H575.0639999999999V217.088H565.8239999999998V209.528H573.3359999999999V207.776H565.8239999999998V201.368H574.2719999999999V199.59199999999998H554.4239999999999V201.368H563.9279999999999V217.088H558.6239999999999V205.76ZM586.2959999999999 213.488C588.8159999999999 212.6 590.4479999999999 210.632 590.4479999999999 208.04C590.4479999999999 206.36 589.728 205.28 588.4079999999999 205.28C587.4239999999999 205.28 586.584 205.88 586.584 207.008C586.584 208.136 587.3999999999999 208.712 588.3839999999999 208.712L588.7919999999999 208.664C588.6719999999999 210.32 587.6159999999999 211.448 585.7679999999999 212.216ZM607.8959999999998 203.672C606.4559999999999 205.496 604.0799999999999 207.392 601.9439999999998 208.592C602.3519999999999 208.88 603.0239999999999 209.576 603.3599999999999 209.936C605.4479999999999 208.568 607.9919999999998 206.408 609.6479999999999 204.344ZM615.0959999999999 204.68C617.3279999999999 206.216 619.9919999999998 208.496 621.2159999999999 210.032L622.728 208.832C621.4079999999999 207.32 618.6959999999999 205.136 616.512 203.648ZM608.7119999999999 207.872 607.1039999999999 208.376C608.0639999999999 210.728 609.3599999999999 212.72 611.0159999999998 214.352C608.4959999999999 216.272 605.2559999999999 217.52 601.3919999999999 218.336C601.728 218.744 602.3039999999999 219.536 602.4959999999999 219.968C606.3599999999999 219.008 609.6959999999999 217.616 612.3359999999999 215.552C614.8799999999999 217.616 618.1199999999999 219.008 622.1039999999999 219.776C622.3439999999999 219.272 622.8479999999998 218.528 623.2559999999999 218.12C619.3919999999999 217.496 616.1759999999999 216.224 613.68 214.376C615.3839999999999 212.72 616.7279999999998 210.728 617.7119999999999 208.256L615.9119999999999 207.752C615.0959999999999 209.96 613.8959999999998 211.76 612.3359999999999 213.224C610.752 211.736 609.5519999999999 209.936 608.7119999999999 207.872ZM610.2959999999999 198.2C610.8959999999998 199.112 611.5439999999999 200.312 611.9039999999999 201.176H601.8719999999998V202.928H622.608V201.176H612.6719999999999L613.752 200.744C613.4399999999999 199.904 612.6479999999999 198.584 611.9999999999999 197.624ZM626.7599999999999 209.816V218.504H643.8V219.872H645.7439999999999V209.816H643.8V216.704H637.1999999999999V208.304H644.7839999999999V200.0H642.8399999999999V206.552H637.1999999999999V197.864H635.2319999999999V206.552H629.7359999999999V200.024H627.8639999999999V208.304H635.2319999999999V216.704H628.752V209.816ZM649.3199999999999 207.656V209.624H671.3039999999999V207.656ZM686.6639999999999 197.888V203.048H684.0479999999999V204.68H686.6639999999999V205.424C686.6639999999999 210.08 686.2799999999999 215.048 682.1519999999999 218.912C682.608 219.152 683.2319999999999 219.68 683.5439999999999 220.016C687.8879999999999 215.888 688.3439999999999 210.488 688.3439999999999 205.424V204.68H690.8879999999999V217.28C690.8879999999999 218.528 690.9839999999999 218.936 691.3199999999999 219.296C691.656 219.656 692.1599999999999 219.752 692.6399999999999 219.752C692.8799999999999 219.752 693.4079999999999 219.752 693.7199999999999 219.752C694.1279999999999 219.752 694.56 219.656 694.8719999999998 219.44C695.1839999999999 219.2 695.3999999999999 218.84 695.5199999999999 218.264C695.6159999999999 217.736 695.6879999999999 216.2 695.7119999999999 214.952C695.2799999999999 214.808 694.728 214.52 694.3679999999999 214.232C694.3919999999999 215.576 694.3439999999999 216.728 694.3199999999999 217.208C694.2719999999999 217.496 694.1759999999999 217.736 694.0799999999999 217.856C693.9839999999999 217.976 693.7919999999999 218.0 693.6239999999999 218.0C693.4319999999999 218.0 693.2159999999999 218.0 693.0959999999999 218.0C692.9279999999999 218.0 692.7839999999999 217.928 692.6879999999999 217.856C692.6159999999999 217.76 692.5679999999999 217.592 692.5679999999999 217.424V203.048H688.3439999999999V197.888ZM674.1359999999999 203.84V212.192H677.9039999999999V214.136H673.2239999999999V215.744H677.9039999999999V219.92H679.584V215.744H684.1439999999999V214.136H679.584V212.192H683.4959999999999V203.84H679.584V202.016H683.8559999999999V200.432H679.584V197.84H677.9039999999999V200.432H673.584V202.016H677.9039999999999V203.84ZM675.5999999999999 208.64H678.0239999999999V210.848H675.5999999999999ZM679.4399999999999 208.64H681.9839999999999V210.848H679.4399999999999ZM675.5999999999999 205.184H678.0239999999999V207.368H675.5999999999999ZM679.4399999999999 205.184H681.9839999999999V207.368H679.4399999999999ZM708.3359999999999 205.256C706.3439999999999 205.256 704.6879999999999 206.888 704.6879999999999 208.904C704.6879999999999 210.92 706.3439999999999 212.552 708.3359999999999 212.552C710.3519999999999 212.552 711.9839999999999 210.92 711.9839999999999 208.904C711.9839999999999 206.888 710.3519999999999 205.256 708.3359999999999 205.256ZM708.3359999999999 211.328C707.0159999999998 211.328 705.9119999999999 210.248 705.9119999999999 208.904C705.9119999999999 207.56 707.0159999999998 206.48 708.3359999999999 206.48C709.68 206.48 710.7599999999999 207.56 710.7599999999999 208.904C710.7599999999999 210.248 709.68 211.328 708.3359999999999 211.328Z" fill="#A9A295"/>
</svg>